<?xml version="1.0" encoding="UTF-8"?>
<svg version="1.1" xmlns="http://www.w3.org/2000/svg" width="413" height="313">
<path d="M0 0 C2 2 2 2 2.10009766 4.17626953 C2.03870605 5.06942871 1.97731445 5.96258789 1.9140625 6.8828125 C1.28379699 19.80534942 1.75305721 29.06554698 8.76757812 40.05957031 C10.08407055 42.13236781 11.31958609 44.24044712 12.546875 46.3671875 C14.23457561 49.29136098 15.95788156 52.18882699 17.7109375 55.07421875 C19.66100748 58.32721159 21.20473594 61.66000606 22.75 65.125 C25.19009282 69.58483922 27.6720818 71.22391759 32.23046875 73.39453125 C32.8444603 73.689077 33.45845184 73.98362274 34.09104919 74.28709412 C41.14147682 77.62487797 48.34657047 80.60497643 55.5625 83.5625 C94.61731122 99.63200273 94.61731122 99.63200273 99 109 C101.08978561 114.81890833 101.34859118 120.15922371 101.3125 126.3125 C101.30903564 127.27728271 101.30557129 128.24206543 101.30200195 129.23608398 C101.13525634 140.43199222 99.17878875 151.01967833 96.6171875 161.8828125 C94.65980818 170.3165193 93.00520994 178.79891335 91.4375 187.3125 C91.28181549 188.15484192 91.12613098 188.99718384 90.96572876 189.86505127 C88.31291744 204.41480519 86.965319 218.72564326 86.38671875 233.4921875 C85.98717056 242.36813775 85.03741093 250.23673388 78.27734375 256.62890625 C70.71001539 262.87232826 61.81925883 263.28464859 52.3137207 264.06567383 C51.27940414 264.15556643 50.24508759 264.24545902 49.1794281 264.33807564 C45.76201942 264.63357006 42.3439416 264.92037361 38.92578125 265.20703125 C36.50542551 265.4143483 34.08511277 265.62216799 31.6648407 265.83045959 C25.21263856 266.3841431 18.75980778 266.9301478 12.30682373 267.47463226 C8.31248909 267.81207063 4.31843993 268.15280362 0.32446289 268.4944458 C-0.33544989 268.55089327 -0.99536268 268.60734074 -1.67527282 268.66549873 C-3.00799684 268.77950429 -4.34072074 268.89351128 -5.67344451 269.00751972 C-34.66098177 271.48601397 -63.65309492 273.89555279 -92.65808105 276.16067505 C-108.3929282 277.39268022 -124.06414018 278.89711605 -139.73632812 280.76098633 C-148.40128687 281.7818389 -156.99640867 282.40121754 -165.71728516 282.63549805 C-171.81078686 282.82333787 -177.78160947 283.39448266 -183.83203125 284.13647461 C-195.29430522 285.53950969 -206.66206493 286.36181918 -218.20443726 286.47579956 C-219.72588958 286.49183912 -221.24727906 286.51609506 -222.76846313 286.54885864 C-224.89852358 286.59041836 -227.02584415 286.59746426 -229.15625 286.59375 C-230.38150391 286.60083984 -231.60675781 286.60792969 -232.86914062 286.61523438 C-236 286 -236 286 -238.35449219 283.66918945 C-243.48116671 275.35317572 -242.82544367 264.16128929 -243.37548828 254.64038086 C-243.93018615 245.3191366 -245.33233257 238.45388347 -249.66796875 230.0168457 C-251.76041767 225.27777105 -251.88977988 220.80503191 -251.875 215.6875 C-251.895625 214.74455078 -251.91625 213.80160156 -251.9375 212.83007812 C-251.98374579 210.55247291 -252.00452298 208.27796875 -252 206 C-252.66 206 -253.32 206 -254 206 C-255.40234375 204.41796875 -255.40234375 204.41796875 -256.9375 202.1875 C-257.44152344 201.47980469 -257.94554687 200.77210938 -258.46484375 200.04296875 C-262.75044752 191.54809513 -263.98095804 181.58763287 -265.6875 172.3125 C-265.91244141 171.14138672 -266.13738281 169.97027344 -266.36914062 168.76367188 C-269.15603678 153.74492753 -269.15603678 153.74492753 -267.14453125 148.96875 C-262.01607067 143.31390783 -255.64957268 139.5996535 -249 136 C-248.39752441 135.67338379 -247.79504883 135.34676758 -247.17431641 135.01025391 C-235.12227186 128.63715034 -222.3485423 124.03956424 -209.61853027 119.24310303 C-195.66002355 113.96556776 -181.98582462 108.17825275 -168.375 102.0625 C-167.4313559 101.63868042 -166.48771179 101.21486084 -165.51547241 100.77819824 C-161.73979881 99.08110483 -157.96494693 97.38220381 -154.19132996 95.68054199 C-123.38584025 81.79979544 -92.3292059 68.75743259 -60.38720703 57.7019043 C-54.34904078 55.60034282 -48.43562577 53.44984826 -42.66088867 50.69702148 C-41 50 -41 50 -39 50 C-39.061875 48.741875 -39.12375 47.48375 -39.1875 46.1875 C-39.17058269 35.44501 -35.11553487 25.84774762 -28.0078125 17.8828125 C-19.91174236 10.29077786 -9.81925465 4.99801669 0 0 Z M-24 25 C-30.13593977 31.78940628 -30.34155645 38.23657415 -30.3125 47 C-30.32861328 47.97195312 -30.34472656 48.94390625 -30.36132812 49.9453125 C-30.36677739 57.94484061 -28.79016668 62.26503762 -23.20703125 68.0859375 C-21.74980198 69.52338538 -20.28472807 70.95291769 -18.8125 72.375 C-18.06291016 73.11105469 -17.31332031 73.84710938 -16.54101562 74.60546875 C-14.70065176 76.41066643 -12.85364077 78.20845508 -11 80 C-16.15792749 79.54504997 -19.76106952 79.0397676 -24.1875 76.1875 C-25.44240234 75.38505859 -25.44240234 75.38505859 -26.72265625 74.56640625 C-29.25369305 72.82550443 -31.67785877 71.0125224 -34 69 C-39.61110618 74.04369095 -44.49751008 79.10733497 -45.296875 86.890625 C-44.94202023 90.60726178 -43.84772995 92.57607169 -41.8125 95.6875 C-40.92498047 97.08548828 -40.92498047 97.08548828 -40.01953125 98.51171875 C-37.03258795 102.19195643 -34.6469211 103.80661154 -29.90625 104.36328125 C-14.70927911 104.1367209 0.95215591 102.91566528 12.44140625 91.80859375 C16.54039736 87.05212036 17.66590063 81.96447782 17.38769531 75.84033203 C15.96289722 65.40198125 9.12857272 55.18621729 4.25 45.9375 C3.22213332 43.98136986 2.19573885 42.02449586 1.17181396 40.06629944 C0.25465905 38.3133408 -0.66697205 36.56272623 -1.58886719 34.81225586 C-3.52686141 30.95001443 -4.11112613 28.37064569 -3.87890625 24.11328125 C-3.83056641 23.17548828 -3.78222656 22.23769531 -3.73242188 21.27148438 C-3.67634766 20.29501953 -3.62027344 19.31855469 -3.5625 18.3125 C-3.51029297 17.32443359 -3.45808594 16.33636719 -3.40429688 15.31835938 C-3.27464694 12.87858324 -3.13968258 10.43921895 -3 8 C-8.94597738 8 -19.80302059 20.89874118 -24 25 Z M-46.78662109 59.38256836 C-47.57263702 59.68876099 -48.35865295 59.99495361 -49.16848755 60.3104248 C-50.02812103 60.65013306 -50.88775452 60.98984131 -51.7734375 61.33984375 C-52.67117889 61.69284546 -53.56892029 62.04584717 -54.49386597 62.4095459 C-57.45681676 63.57915928 -60.41641962 64.75687681 -63.375 65.9375 C-64.39106323 66.34259796 -65.40712646 66.74769592 -66.45397949 67.16506958 C-83.70151447 74.06608224 -100.51188343 81.63169181 -117.22428894 89.72828674 C-157.49494108 109.23254002 -198.65943271 126.50050157 -240.11645508 143.30297852 C-241.0052536 143.66408218 -241.89405212 144.02518585 -242.80978394 144.39723206 C-244.4591944 145.06713494 -246.10938428 145.73512358 -247.76052856 146.40074158 C-251.93932693 148.09940087 -255.99182956 149.91936226 -260 152 C-260 152.33 -260 152.66 -260 153 C-250.51919854 155.17107932 -240.42870171 153.97553888 -230.81494141 153.2199707 C-229.69168268 153.13199124 -228.56842396 153.04401178 -227.41112709 152.95336628 C-215.51685222 151.96206358 -203.75571568 150.27752504 -191.9609375 148.48046875 C-189.65348607 148.13581135 -187.34591662 147.79194323 -185.03823853 147.44880676 C-179.02933155 146.55307481 -173.02214291 145.64630592 -167.01525879 144.73712158 C-160.98911951 143.82726973 -154.96125004 142.92903264 -148.93359375 142.02929688 C-130.8668412 139.32787561 -112.80151168 136.62311994 -94.76307678 133.73794556 C-82.83481241 131.83061974 -70.98892744 130.15912966 -58.9375 129.3125 C-57.43400534 129.19621845 -55.93058915 129.07891875 -54.42724609 128.96069336 C-45.94844921 128.30532334 -37.46471601 127.78164144 -28.97509766 127.28833008 C-13.80732748 126.39865428 1.10266975 124.68595219 16.140625 122.54101562 C22.89878346 121.5936422 29.66699655 120.72894282 36.4375 119.875 C37.10847717 119.78945862 37.77945435 119.70391724 38.47076416 119.61578369 C47.24211245 118.50125709 55.99512032 117.64105206 64.8125 117 C72.36500364 116.44443762 79.13556596 115.45739221 86 112 C86 111.34 86 110.68 86 110 C85.34 110 84.68 110 84 110 C84 109.34 84 108.68 84 108 C81.80388141 106.38475012 79.62720772 104.92984131 77.3125 103.5 C76.24793579 102.84004028 76.24793579 102.84004028 75.16186523 102.16674805 C63.17387792 94.91571025 50.28366135 89.26960172 37.375 83.875 C36.31841187 83.43184448 36.31841187 83.43184448 35.24047852 82.97973633 C32.33140722 81.79653828 30.17215245 81 27 81 C26.78085937 81.7734375 26.56171875 82.546875 26.3359375 83.34375 C23.2013088 93.63960361 19.50673927 100.41769998 9.87890625 105.68359375 C-3.5360889 111.81772315 -20.41287725 113.93272573 -35 111 C-38.4375 109.5625 -38.4375 109.5625 -41 108 C-41.7425 107.71125 -42.485 107.4225 -43.25 107.125 C-45.70233371 105.54849976 -46.14270678 103.71476185 -47 101 C-47.66 101 -48.32 101 -49 101 C-52.41379305 94.69761284 -55.22813876 88.26886778 -54 81 C-51.97064543 74.43842023 -47.30095567 69.56559512 -42.828125 64.515625 C-40.60808473 61.97898585 -40.60808473 61.97898585 -41 58 C-43.28693198 58 -44.65805435 58.5499517 -46.78662109 59.38256836 Z M81.86328125 123.24609375 C74.73192186 125.12379138 67.67480924 125.0971466 60.34326172 125.18896484 C48.29622661 125.35316481 36.73443079 126.04102186 24.875 128.375 C6.98899959 131.88215736 -10.92793404 133.66152315 -29.12109375 134.49609375 C-89.67793881 137.35503952 -149.68837852 147.53429647 -209.44676208 157.31253052 C-226.71033474 160.12437687 -226.71033474 160.12437687 -234.2578125 160.1328125 C-235.37800781 160.13410156 -236.49820313 160.13539063 -237.65234375 160.13671875 C-238.79832031 160.13285156 -239.94429687 160.12898438 -241.125 160.125 C-242.85556641 160.13080078 -242.85556641 160.13080078 -244.62109375 160.13671875 C-246.29751953 160.13478516 -246.29751953 160.13478516 -248.0078125 160.1328125 C-249.01473145 160.13168457 -250.02165039 160.13055664 -251.05908203 160.12939453 C-254.10890305 159.99520848 -257.00182832 159.56149505 -260 159 C-259.55456354 167.4388078 -258.2103452 175.27362795 -256.0625 183.4375 C-255.79759766 184.48615234 -255.53269531 185.53480469 -255.25976562 186.61523438 C-254.07921378 191.21733598 -252.83824925 195.61123553 -251 200 C-250.39676407 199.9189653 -249.79352814 199.8379306 -249.17201233 199.75444031 C-182.39783794 190.79920402 -182.39783794 190.79920402 -150.23974609 189.34448242 C-120.97240821 188.01543675 -92.35541938 184.32096584 -63.5625 178.9375 C-32.55584996 173.16783779 -2.07560988 170.38441684 29.4141283 169.20174503 C47.92750132 168.50397438 65.92762138 167.20741392 84 163 C88.84874766 150.0270209 92 134.86237691 92 121 C88.28490868 121 85.36821777 122.0889616 81.86328125 123.24609375 Z M79.05078125 172.83984375 C78.28443359 173.01580078 77.51808594 173.19175781 76.72851562 173.37304688 C75.13722416 173.7448199 73.54607448 174.11720043 71.95507812 174.49023438 C71.18228516 174.66748047 70.40949219 174.84472656 69.61328125 175.02734375 C68.92016846 175.18968506 68.22705566 175.35202637 67.51293945 175.51928711 C59.74229282 177.00577338 52.00031207 177.27017923 44.1074028 177.53905678 C41.90559336 177.61519504 39.70410325 177.69767292 37.50259399 177.7820282 C31.24571632 178.02168096 24.98882569 178.2589852 18.73095703 178.47143555 C-8.11165439 179.39068495 -34.24245663 182.10868124 -60.66921997 187.12219238 C-64.79499184 187.90159188 -68.92696379 188.64691821 -73.05859375 189.39453125 C-73.85398056 189.53865448 -74.64936737 189.68277771 -75.46885681 189.83126831 C-103.03781623 194.80708401 -131.05581351 196.9782995 -159.05142212 197.28460693 C-178.50261197 197.50067085 -197.72131873 199.06077523 -217.0625 201 C-217.75647511 201.06905674 -218.45045021 201.13811348 -219.16545486 201.20926285 C-223.78990456 201.66973205 -228.41288641 202.1430407 -233.03515625 202.625 C-234.82886658 202.80937874 -234.82886658 202.80937874 -236.65881348 202.9974823 C-237.74601685 203.11432877 -238.83322021 203.23117523 -239.95336914 203.3515625 C-240.90812637 203.45291504 -241.86288361 203.55426758 -242.84657288 203.65869141 C-244.9758447 203.77994551 -244.9758447 203.77994551 -246 205 C-246.95987778 216.6971153 -245.01169093 227.47898256 -240 238 C-220.81588236 235.9317781 -201.64768617 233.75858435 -182.5 231.375 C-181.65832275 231.27103912 -180.81664551 231.16707825 -179.94946289 231.05996704 C-168.92619058 229.70800787 -168.92619058 229.70800787 -157.96875 227.9140625 C-145.97302152 225.8703154 -133.742608 225.94767607 -121.609375 225.9296875 C-91.06474987 225.86972772 -62.01231459 223.59563363 -32 218 C-30.24166474 217.67736 -28.48320172 217.35541545 -26.72460938 217.03417969 C-20.09399896 215.82113381 -13.46615415 214.59339411 -6.83959961 213.35839844 C15.56546905 209.18825678 37.18078761 207.58994228 59.95727539 207.28955078 C60.92542175 207.27591492 61.89356812 207.26227905 62.89105225 207.24822998 C64.73128716 207.22385944 66.57158903 207.20401199 68.41192627 207.18927002 C69.23610046 207.17885681 70.06027466 207.1684436 70.90942383 207.15771484 C71.62979324 207.15121918 72.35016266 207.14472351 73.09236145 207.13803101 C75.2232593 207.06276818 75.2232593 207.06276818 78 206 C81.45717608 200.67648208 82.41258117 194.5578807 83.6875 188.4375 C83.91244141 187.40947266 84.13738281 186.38144531 84.36914062 185.32226562 C85.3354541 180.79028478 86.13250913 176.6514371 86 172 C83.41169206 172 81.53602461 172.25705083 79.05078125 172.83984375 Z M78 211 C77.02732178 211.32274902 76.05464355 211.64549805 75.05249023 211.97802734 C70.7373543 213.20467251 66.62300504 213.30679817 62.16015625 213.3515625 C60.38194704 213.39190826 58.60378949 213.43458039 56.82568359 213.47924805 C55.88907898 213.50159515 54.95247437 213.52394226 53.98748779 213.54696655 C31.21380714 214.15452766 9.32944286 217.26275724 -13.04489136 221.37397766 C-23.04479181 223.2107957 -33.07254462 224.85998782 -43.10955811 226.47988892 C-45.86105341 226.92512959 -48.61152949 227.37621926 -51.36181641 227.82885742 C-53.04196675 228.10350854 -54.7221412 228.37801218 -56.40234375 228.65234375 C-57.51474174 228.83618622 -57.51474174 228.83618622 -58.64961243 229.02374268 C-60.76423737 229.3662357 -62.88051168 229.68909188 -65 230 C-65.66195877 230.09998291 -66.32391754 230.19996582 -67.00593567 230.30297852 C-73.62221392 231.17828569 -80.22374762 231.10741806 -86.8879509 231.07796478 C-90.62836891 231.06453684 -94.36871672 231.07650556 -98.10913086 231.08740234 C-99.28876089 231.09075214 -99.28876089 231.09075214 -100.49222183 231.09416962 C-131.03831995 231.1961406 -160.43732676 232.9148286 -190.65397644 237.74481201 C-203.700718 239.80019998 -216.85603924 240.78124632 -230.02294922 241.72216797 C-233.05026194 242.00469067 -236.00809606 242.46379445 -239 243 C-238.0606853 250.79878388 -236.79451971 258.41914448 -235 266.0625 C-234.8340332 266.77591553 -234.66806641 267.48933105 -234.49707031 268.22436523 C-233.59510462 271.9638016 -232.46746539 275.45018592 -231 279 C-213.07144786 278.13912038 -195.27914438 277.15978198 -177.484375 274.71875 C-173.00778851 274.10873963 -168.53375986 273.64500386 -164.03222656 273.26367188 C-163.0109668 273.17666016 -161.98970703 273.08964844 -160.9375 273 C-159.72425301 272.89844856 -159.72425301 272.89844856 -158.48649597 272.79484558 C-153.35252399 272.34871855 -148.26577869 271.78665735 -143.1675415 271.03959656 C-123.8570527 268.25504528 -104.355585 267.01077228 -84.91851425 265.44373322 C-76.32645793 264.74890591 -67.73553342 264.04011615 -59.14450645 263.33269501 C-56.98798822 263.15514572 -54.83145464 262.97778269 -52.67490578 262.80060577 C-30.2139564 260.95443801 -7.76727076 258.96486787 14.67480469 256.90307617 C17.14387159 256.67747732 19.61294686 256.45196993 22.08203125 256.2265625 C23.24467499 256.11917252 24.40731873 256.01178253 25.60519409 255.90113831 C31.57383125 255.3596608 37.5400941 254.88396688 43.52099609 254.49902344 C44.74678879 254.41816498 45.97258148 254.33730652 47.23551941 254.2539978 C49.55100608 254.10523658 51.86718991 253.96679594 54.18403625 253.8409729 C60.32931071 253.44593037 65.5099586 252.90168344 71 250 C73.76659934 245.99995257 74.60113795 241.9602428 75.421875 237.2109375 C75.64230469 235.93992188 75.86273438 234.66890625 76.08984375 233.359375 C76.19796387 232.70517578 76.30608398 232.05097656 76.41748047 231.37695312 C76.75063761 229.37116124 77.10275807 227.36934549 77.45703125 225.3671875 C78.99076082 218.14404606 78.99076082 218.14404606 78 211 Z " fill="rgba(244, 194, 238, 0.1)" transform="translate(291,6)"/>
<path d="M0 0 C0 0.99 0 1.98 0 3 C-12.00516723 6.05586075 -24.25939636 6.92645829 -36.58520508 7.64770508 C-51.92880102 8.55301516 -66.86278182 10.37630133 -82 13 C-86.67250805 13.80793493 -91.34557463 14.61213766 -96.02001953 15.40878296 C-97.94048712 15.73974394 -99.85896014 16.08221463 -101.77734375 16.42504883 C-108.59550316 17.60351327 -115.07897617 18.32292796 -122 18 C-119.27391297 15.27391297 -116.38547776 15.10429269 -112.72265625 14.44921875 C-111.97741699 14.31016617 -111.23217773 14.17111359 -110.46435547 14.02784729 C-107.99869893 13.57159489 -105.53091494 13.1285702 -103.0625 12.6875 C-102.21388397 12.53381958 -101.36526794 12.38013916 -100.49093628 12.22180176 C-32.88364905 0 -32.88364905 0 0 0 Z " fill="rgba(244, 194, 238, 0.1)" transform="translate(209,131)"/>
<path d="M0 0 C-0.33 0.99 -0.66 1.98 -1 3 C-17.72138828 4.96391323 -34.4669553 6.68277103 -51.22079468 8.34341431 C-53.52579879 8.57219606 -55.83067089 8.80231187 -58.13540649 9.03378296 C-61.42712453 9.36380492 -64.7193284 9.68848116 -68.01171875 10.01171875 C-69.0004599 10.11158081 -69.98920105 10.21144287 -71.00790405 10.31433105 C-76.36952212 10.83386298 -81.61328683 11.10042285 -87 11 C-81.78735447 4.71202402 -70.67231794 4.66022974 -63.04710388 3.89778137 C-62.00933304 3.80389633 -60.97156219 3.71001129 -59.90234375 3.61328125 C-58.78799454 3.50654587 -57.67364532 3.39981049 -56.52552795 3.2898407 C-54.18223883 3.06784187 -51.83851038 2.85043589 -49.49438477 2.63745117 C-45.96944703 2.31541863 -42.44674507 1.9742164 -38.92382812 1.63085938 C-25.90894935 0.39872419 -13.07230794 -0.3311585 0 0 Z " fill="rgba(244, 194, 238, 0.1)" transform="translate(330,119)"/>
<path d="M0 0 C3.11968359 0.64428248 5.55873453 1.72242877 8.328125 3.28515625 C9.12734375 3.73310547 9.9265625 4.18105469 10.75 4.64257812 C11.575 5.11115234 12.4 5.57972656 13.25 6.0625 C14.09046875 6.53494141 14.9309375 7.00738281 15.796875 7.49414062 C17.86698876 8.65857961 19.93455014 9.8273145 22 11 C22 11.66 22 12.32 22 13 C16.02503626 14.68857671 12.63165223 13.42167774 7.2421875 10.46484375 C3.66198366 8.1258604 1.56876435 5.75369008 0.25 1.6875 C0.1675 1.130625 0.085 0.57375 0 0 Z " fill="rgba(244, 194, 238, 0.1)" transform="translate(271,60)"/>
<path d="M0 0 C0.66 0 1.32 0 2 0 C2.48315912 7.12659698 2.48315912 7.12659698 0.375 10.9375 C-2.44400988 13.38558753 -4.32147666 13.74919159 -8 14 C-7.65015815 8.40253042 -3.85992893 3.85992893 0 0 Z " fill="rgba(244, 194, 238, 0.1)" transform="translate(350,232)"/>
<path d="M0 0 C1.32 0.99 2.64 1.98 4 3 C3.51159618 9.47135061 3.51159618 9.47135061 1.125 11.9375 C-1 13 -1 13 -4 13 C-4.45732667 7.28341664 -3.52273754 4.51350747 0 0 Z " fill="rgba(244, 194, 238, 0.1)" transform="translate(345,149)"/>
<path d="M0 0 C0.78375 0.04125 1.5675 0.0825 2.375 0.125 C3.5625 2.375 3.5625 2.375 4.375 5.125 C3.3125 7.4375 3.3125 7.4375 1.375 9.125 C-1.25 9.4375 -1.25 9.4375 -3.625 9.125 C-4.625 8.125 -4.625 8.125 -4.8125 5.1875 C-4.57390036 1.29037256 -3.98646018 0.18983144 0 0 Z " fill="rgba(244, 194, 238, 0.1)" transform="translate(191.625,214.875)"/>
<path d="M0 0 C0.721875 0.144375 1.44375 0.28875 2.1875 0.4375 C2.54963469 4.90382783 2.54963469 4.90382783 1 7.1875 C-1.28856379 8.76581986 -3.04865924 9.22489686 -5.8125 9.4375 C-6.4725 8.7775 -7.1325 8.1175 -7.8125 7.4375 C-3.69871444 0.57535558 -3.69871444 0.57535558 0 0 Z " fill="rgba(244, 194, 238, 0.1)" transform="translate(88.8125,227.5625)"/>
<path d="M0 0 C0.66 0 1.32 0 2 0 C3.43735246 2.87470493 3.38172649 4.81894588 3 8 C0.6875 10.4375 0.6875 10.4375 -2 12 C-2.99 11.67 -3.98 11.34 -5 11 C-3.55049545 7.2089881 -1.84827434 3.6125362 0 0 Z " fill="rgba(244, 194, 238, 0.1)" transform="translate(333,238)"/>
<path d="M0 0 C2.91517292 1.07401108 4.77810176 1.77810176 7 4 C6.625 6.125 6.625 6.125 6 8 C4.25 8.6875 4.25 8.6875 2 9 C-0.25 7.5625 -0.25 7.5625 -2 6 C-1.34 4.02 -0.68 2.04 0 0 Z " fill="rgba(244, 194, 238, 0.1)" transform="translate(355,198)"/>
<path d="M0 0 C2.5 0.0625 2.5 0.0625 5 1 C6.3125 3.5625 6.3125 3.5625 7 6 C6.34 6.66 5.68 7.32 5 8 C1.875 7.625 1.875 7.625 -1 7 C-1.625 4.625 -1.625 4.625 -2 2 C-1.34 1.34 -0.68 0.68 0 0 Z " fill="rgba(244, 194, 238, 0.1)" transform="translate(223,198)"/>
<path d="M0 0 C0.66 0 1.32 0 2 0 C4.32590854 3.63423209 4.16265833 6.77088331 4 11 C1.13275314 10.42655063 0.1385485 10.1385485 -2 8 C-1.42307692 1.42307692 -1.42307692 1.42307692 0 0 Z " fill="rgba(244, 194, 238, 0.1)" transform="translate(71,212)"/>
<path d="M0 0 C0.36075949 5.41139241 0.36075949 5.41139241 -1.1875 7.9375 C-3 9 -3 9 -5.6875 8.6875 C-6.450625 8.460625 -7.21375 8.23375 -8 8 C-5.18918919 0 -5.18918919 0 0 0 Z " fill="rgba(244, 194, 238, 0.1)" transform="translate(361,149)"/>
<path d="M0 0 C2.4375 0.75 2.4375 0.75 5 2 C5.9375 4 5.9375 4 6 6 C5.34 6.66 4.68 7.32 4 8 C1.375 7.625 1.375 7.625 -1 7 C-1.625 4.625 -1.625 4.625 -2 2 C-1.34 1.34 -0.68 0.68 0 0 Z " fill="rgba(244, 194, 238, 0.1)" transform="translate(299,198)"/>
<path d="M0 0 C0.99 0 1.98 0 3 0 C2.69121904 3.60244452 2.00552268 4.99345998 -0.375 7.8125 C-3 10 -3 10 -6 10 C-4.63356852 6.01457486 -2.89890986 3.07460137 0 0 Z " fill="rgba(244, 194, 238, 0.1)" transform="translate(333,151)"/>
<path d="M0 0 C2.475 0.99 2.475 0.99 5 2 C5 3.32 5 4.64 5 6 C4 7 4 7 1.4375 7.0625 C0.2309375 7.0315625 0.2309375 7.0315625 -1 7 C-1.625 4.625 -1.625 4.625 -2 2 C-1.34 1.34 -0.68 0.68 0 0 Z " fill="rgba(244, 194, 238, 0.1)" transform="translate(334,201)"/>
<path d="M0 0 C2.5 1.125 2.5 1.125 5 3 C5.3125 6.1875 5.3125 6.1875 5 9 C2 9 2 9 0.25 7.3125 C-1 5 -1 5 -0.6875 2.25 C-0.460625 1.5075 -0.23375 0.765 0 0 Z " fill="rgba(244, 194, 238, 0.1)" transform="translate(81,265)"/>
<path d="M0 0 C3.74278215 1.4488189 3.74278215 1.4488189 4.875 3.875 C5.02787435 6.47386397 4.33454536 7.8019253 3 10 C-0.91941982 6.69298952 -0.91941982 6.69298952 -1.3125 3.3125 C-1 1 -1 1 0 0 Z " fill="rgba(244, 194, 238, 0.1)" transform="translate(98,214)"/>
<path d="M0 0 C-0.33 1.32 -0.66 2.64 -1 4 C-2.98 4 -4.96 4 -7 4 C-7.33 2.35 -7.66 0.7 -8 -1 C-4.37673261 -2.2077558 -3.35853631 -1.54311128 0 0 Z " fill="rgba(244, 194, 238, 0.1)" transform="translate(219,222)"/>
<path d="M0 0 C0.66 0.33 1.32 0.66 2 1 C1.25 5.75 1.25 5.75 -1 8 C-3.625 7.625 -3.625 7.625 -6 7 C-2.25 1.125 -2.25 1.125 0 0 Z " fill="rgba(244, 194, 238, 0.1)" transform="translate(184,204)"/>
<path d="M0 0 C1.9375 0.8125 1.9375 0.8125 4 2 C4.33 2.99 4.66 3.98 5 5 C3.68 6.32 2.36 7.64 1 9 C0.34 8.34 -0.32 7.68 -1 7 C-0.625 3.375 -0.625 3.375 0 0 Z " fill="rgba(244, 194, 238, 0.1)" transform="translate(63,224)"/>
<path d="M0 0 C0.99 0 1.98 0 3 0 C3.33 1.65 3.66 3.3 4 5 C1.525 6.485 1.525 6.485 -1 8 C-1.625 5.6875 -1.625 5.6875 -2 3 C-1.34 2.01 -0.68 1.02 0 0 Z " fill="rgba(244, 194, 238, 0.1)" transform="translate(276,196)"/>
<path d="M0 0 C1.2065625 0.0309375 1.2065625 0.0309375 2.4375 0.0625 C2.1075 1.7125 1.7775 3.3625 1.4375 5.0625 C-0.2125 5.3925 -1.8625 5.7225 -3.5625 6.0625 C-3.605221 4.39638095 -3.60313832 2.72867115 -3.5625 1.0625 C-2.5625 0.0625 -2.5625 0.0625 0 0 Z " fill="rgba(244, 194, 238, 0.1)" transform="translate(324.5625,243.9375)"/>
<path d="M0 0 C1.2065625 0.0309375 1.2065625 0.0309375 2.4375 0.0625 C3.0975 1.3825 3.7575 2.7025 4.4375 4.0625 C2.4575 4.3925 0.4775 4.7225 -1.5625 5.0625 C-2.2225 3.7425 -2.8825 2.4225 -3.5625 1.0625 C-2.5625 0.0625 -2.5625 0.0625 0 0 Z " fill="rgba(244, 194, 238, 0.1)" transform="translate(168.5625,223.9375)"/>
<path d="M0 0 C2.13562754 2.13562754 2.63318342 3.06546739 3 6 C2.34 6.66 1.68 7.32 1 8 C-1.125 7.625 -1.125 7.625 -3 7 C-2.25 2.25 -2.25 2.25 0 0 Z " fill="rgba(244, 194, 238, 0.1)" transform="translate(129,216)"/>
<path d="M0 0 C1.9375 0.3125 1.9375 0.3125 4 1 C4.33 1.99 4.66 2.98 5 4 C4.01 4.99 3.02 5.98 2 7 C1.01 6.67 0.02 6.34 -1 6 C-0.67 4.02 -0.34 2.04 0 0 Z " fill="rgba(244, 194, 238, 0.1)" transform="translate(351,189)"/>
<path d="M0 0 C1.98 0.495 1.98 0.495 4 1 C4.33 2.32 4.66 3.64 5 5 C3.02 5.99 3.02 5.99 1 7 C0.34 6.34 -0.32 5.68 -1 5 C-0.625 2.375 -0.625 2.375 0 0 Z " fill="rgba(244, 194, 238, 0.1)" transform="translate(82,215)"/>
<path d="M0 0 C1.32 0.66 2.64 1.32 4 2 C3.67 3.65 3.34 5.3 3 7 C2.01 7 1.02 7 0 7 C-0.66 5.35 -1.32 3.7 -2 2 C-1.34 1.34 -0.68 0.68 0 0 Z " fill="rgba(244, 194, 238, 0.1)" transform="translate(258,201)"/>
<path d="M0 0 C0.66 0 1.32 0 2 0 C2 2.97 2 5.94 2 9 C1.01 8.67 0.02 8.34 -1 8 C-1.625 5.6875 -1.625 5.6875 -2 3 C-1.34 2.01 -0.68 1.02 0 0 Z " fill="rgba(244, 194, 238, 0.1)" transform="translate(93,265)"/>
<path d="M0 0 C1.32 0 2.64 0 4 0 C4 1.98 4 3.96 4 6 C2.35 5.67 0.7 5.34 -1 5 C-0.67 3.35 -0.34 1.7 0 0 Z " fill="rgba(244, 194, 238, 0.1)" transform="translate(242,212)"/>
<path d="M0 0 C1.32 0.99 2.64 1.98 4 3 C3.34 4.32 2.68 5.64 2 7 C0.68 6.34 -0.64 5.68 -2 5 C-2 2 -2 2 0 0 Z " fill="rgba(244, 194, 238, 0.1)" transform="translate(203,203)"/>
<path d="M0 0 C1.32 0.66 2.64 1.32 4 2 C3.34 3.65 2.68 5.3 2 7 C1.01 6.34 0.02 5.68 -1 5 C-0.67 3.35 -0.34 1.7 0 0 Z " fill="rgba(244, 194, 238, 0.1)" transform="translate(332,190)"/>
<path d="M0 0 C0.99 0.33 1.98 0.66 3 1 C3 2.32 3 3.64 3 5 C1.68 4.67 0.36 4.34 -1 4 C-1 1 -1 1 0 0 Z " fill="rgba(244, 194, 238, 0.1)" transform="translate(144,210)"/>
<path d="M0 0 C0.99 0.33 1.98 0.66 3 1 C2.34 2.65 1.68 4.3 1 6 C0.34 5.67 -0.32 5.34 -1 5 C-0.67 3.35 -0.34 1.7 0 0 Z " fill="rgba(244, 194, 238, 0.1)" transform="translate(320,154)"/>
<path d="M0 0 C0.99 0.66 1.98 1.32 3 2 C3 2.66 3 3.32 3 4 C1.68 4.33 0.36 4.66 -1 5 C-1 1 -1 1 0 0 Z " fill="rgba(244, 194, 238, 0.1)" transform="translate(165,211)"/>
<path d="M0 0 C1.32 0.33 2.64 0.66 4 1 C4 1.99 4 2.98 4 4 C2.68 3.67 1.36 3.34 0 3 C0 2.01 0 1.02 0 0 Z " fill="rgba(244, 194, 238, 0.1)" transform="translate(112,227)"/>
<path d="M0 0 C0.66 0 1.32 0 2 0 C2 1.32 2 2.64 2 4 C0.35 4 -1.3 4 -3 4 C-1.625 2 -1.625 2 0 0 Z " fill="rgba(244, 194, 238, 0.1)" transform="translate(316,250)"/>
<path d="M0 0 C0.66 0.33 1.32 0.66 2 1 C2 1.99 2 2.98 2 4 C1.01 3.67 0.02 3.34 -1 3 C-0.67 2.01 -0.34 1.02 0 0 Z " fill="rgba(244, 194, 238, 0.1)" transform="translate(315,195)"/>
<path d="M0 0 C0.66 0 1.32 0 2 0 C1.67 0.66 1.34 1.32 1 2 C0.67 1.34 0.34 0.68 0 0 Z " fill="rgba(244, 194, 238, 0.1)" transform="translate(97,9)"/>
<path d="" fill="rgba(244, 194, 238, 0.1)" transform="translate(0,0)"/>
</svg>
