<?xml version="1.0" encoding="UTF-8"?>
<svg version="1.1" xmlns="http://www.w3.org/2000/svg" width="413" height="313">
<path d="M0 0 C5.14916397 2.15110635 10.51616798 2.29263342 16.0390625 2.55078125 C17.47122345 2.62208054 18.90335138 2.69404558 20.33544922 2.76660156 C21.44699371 2.82201111 21.44699371 2.82201111 22.58099365 2.87854004 C79.19393468 5.78455332 79.19393468 5.78455332 96.8984375 22.03125 C100.97922265 25.61597007 105.45313547 27.50094626 110.43359375 29.55859375 C131.01120351 38.4827192 146.31671048 51.05123715 154.68359375 72.18359375 C160.9497022 89.4371493 158.72528443 109.33728063 151.25439453 125.85424805 C147.20883423 134.23273986 142.38709817 140.55541354 133.78125 144.40234375 C127.17156612 146.66711439 120.21269137 146.75417874 113.68359375 144.12109375 C109.65431884 141.33008382 107.74968903 138.90366059 105.78125 134.4375 C105.28302734 133.34501953 104.78480469 132.25253906 104.27148438 131.12695312 C103.25664436 128.83609148 102.24361539 126.54442668 101.23242188 124.25195312 C98.45635071 118.17325278 96.34144459 113.8227279 90.68359375 110.12109375 C90.00876953 110.79205078 90.00876953 110.79205078 89.3203125 111.4765625 C80.58776891 119.68410347 69.86694515 124.23731922 57.77075195 124.08422852 C55.82786695 123.95763551 53.88538324 123.82472742 51.94335938 123.68554688 C42.71741133 122.85508749 42.71741133 122.85508749 34.6640625 126.50390625 C32.68040779 129.62610834 31.17121335 132.73862906 29.68359375 136.12109375 C22.27505825 146.75989118 9.81968943 153.05560967 -2.72216797 155.61132812 C-5.35623668 156.08203447 -7.99211904 156.54087665 -10.62890625 156.99609375 C-17.41278708 158.17938708 -22.07116896 159.28653987 -26.84375 164.578125 C-28.96840484 166.80422225 -31.40377016 167.3396548 -34.31640625 168.12109375 C-35.96090264 171.41008652 -35.39126094 174.77370931 -35.19140625 178.37109375 C-34.41537385 180.39846858 -34.41537385 180.39846858 -31.8203125 181.16796875 C-27.66964126 182.29702536 -23.65246316 182.73806956 -19.37890625 183.12109375 C-8.85943546 184.06863574 0.40039738 185.85368166 7.68359375 194.12109375 C11.26503154 198.85370798 12.11675448 203.69000482 11.38671875 209.47265625 C9.07754764 219.30223595 1.92207903 227.00073818 -6.1015625 232.8046875 C-24.45956804 243.71588303 -48.06787496 249.79226708 -69.25390625 245.12109375 C-91.98342524 238.33425146 -109.3168037 226.46321959 -127.4609375 211.54296875 C-133.22317304 206.98717492 -137.96945977 205.02780039 -145.2734375 203.984375 C-150.59948884 202.47338996 -153.43693769 199.56825206 -156.22265625 194.984375 C-168.21842559 168.25850655 -175.85033835 139.87867325 -166.31640625 111.12109375 C-165.75566406 109.41373047 -165.75566406 109.41373047 -165.18359375 107.671875 C-161.4800272 97.30924673 -156.67686914 87.46198799 -148.31640625 80.12109375 C-148.79980469 79.55777344 -149.28320312 78.99445313 -149.78125 78.4140625 C-152.40715884 74.4919035 -152.12180913 70.66490831 -151.31640625 66.12109375 C-148.44348569 59.71143387 -143.22134217 54.59164011 -138.5 49.49609375 C-136.5536531 47.37913683 -134.70783845 45.21406531 -132.87890625 42.99609375 C-131.61046875 41.57296875 -131.61046875 41.57296875 -130.31640625 40.12109375 C-129.65640625 40.12109375 -128.99640625 40.12109375 -128.31640625 40.12109375 C-128.31640625 39.46109375 -128.31640625 38.80109375 -128.31640625 38.12109375 C-118.26940516 27.43666963 -104.99639406 19.27160264 -92.31640625 12.12109375 C-91.63529785 11.73002441 -90.95418945 11.33895508 -90.25244141 10.93603516 C-64.77946082 -3.61235315 -27.7195144 -13.25032107 0 0 Z M-40.49853516 4.16796875 C-71.68458836 4.93740106 -99.15795325 23.61008286 -121.31640625 44.12109375 C-122.09371094 44.8275 -122.87101562 45.53390625 -123.671875 46.26171875 C-129.86088232 52.14189337 -138.55296131 60.93064249 -141.31640625 69.12109375 C-141.01262573 71.81102428 -141.01262573 71.81102428 -140.31640625 74.12109375 C-138.73666016 73.32445313 -138.73666016 73.32445313 -137.125 72.51171875 C-113.35659251 60.77865002 -87.66281705 56.92702518 -62.00390625 65.1875 C-58.71318504 66.38592371 -55.52034342 67.70736608 -52.31640625 69.12109375 C-51.13820313 69.63671875 -49.96 70.15234375 -48.74609375 70.68359375 C-34.77355417 77.20210034 -23.61101119 87.34555421 -17.515625 101.703125 C-11.68362496 118.32527496 -9.7289941 131.94560421 -14.31640625 149.12109375 C-8.45499604 149.51847749 -4.53738841 148.33437278 0.74609375 145.87109375 C1.76799805 145.42056641 1.76799805 145.42056641 2.81054688 144.9609375 C16.6162292 138.72782444 25.76716161 126.46742352 32.1796875 112.97265625 C38.51114788 95.67130296 35.33973911 77.12488074 29.68359375 60.12109375 C29.44511719 59.38987305 29.20664063 58.65865234 28.9609375 57.90527344 C22.3634531 37.92218939 12.41803238 18.22550647 -6.31640625 7.12109375 C-13.00621838 4.06303462 -19.23196286 3.70868701 -26.50390625 3.87109375 C-27.51839844 3.88495117 -28.53289062 3.89880859 -29.578125 3.91308594 C-33.21903855 3.97461923 -36.8580415 4.08976616 -40.49853516 4.16796875 Z M12.68359375 9.12109375 C13.03550781 9.58257812 13.38742188 10.0440625 13.75 10.51953125 C15.40810053 12.71012881 17.04560923 14.91541923 18.68359375 17.12109375 C19.51310547 18.20777344 19.51310547 18.20777344 20.359375 19.31640625 C40.53407848 46.67979718 47.91334515 80.7645177 43.68359375 114.12109375 C47.32927088 114.2092628 50.97466849 114.26187323 54.62109375 114.30859375 C55.64267578 114.33373047 56.66425781 114.35886719 57.71679688 114.38476562 C68.36904125 114.48686381 75.56376758 112.36581338 83.3203125 104.88671875 C91.48378073 95.33343692 94.10565949 84.2650542 95.68359375 72.12109375 C95.78510742 71.39341797 95.88662109 70.66574219 95.99121094 69.91601562 C99.32763563 48.59967591 99.32763563 48.59967591 93.18359375 28.68359375 C92.68859375 28.16796875 92.19359375 27.65234375 91.68359375 27.12109375 C90.69359375 27.12109375 89.70359375 27.12109375 88.68359375 27.12109375 C88.18859375 25.63609375 88.18859375 25.63609375 87.68359375 24.12109375 C80.88923184 20.0229072 73.47068412 18.10999356 65.87109375 15.99609375 C64.66388672 15.64933594 63.45667969 15.30257812 62.21289062 14.9453125 C45.60035285 10.25534781 29.85130026 8.93995734 12.68359375 9.12109375 Z M106.68359375 39.12109375 C104.80490024 40.99978726 105.35163806 44.21047258 105.21875 46.7265625 C105.14002068 48.11784119 105.0612429 49.50911713 104.98242188 50.90039062 C104.86441931 53.08283239 104.74835827 55.26536061 104.6340332 57.44799805 C103.77564925 73.58971274 102.70073198 89.69024493 94.68359375 104.12109375 C95.17988281 104.49878906 95.67617188 104.87648438 96.1875 105.265625 C105.15826438 112.53415705 109.95442481 122.34718936 115.10546875 132.46875 C116.56286734 135.35218931 116.56286734 135.35218931 119.68359375 137.12109375 C125.55663644 137.89944881 130.74849228 137.59809706 135.68359375 134.12109375 C144.99360206 125.48945288 147.15052591 114.35941492 147.94140625 102.13671875 C148.62001528 83.9322939 143.81860677 68.06096985 131.28613281 54.48193359 C124.48758571 47.55360847 116.02458954 41.86262655 106.68359375 39.12109375 Z M-142.328125 86.4453125 C-148.24754207 93.98834111 -151.96776601 102.21264113 -155.31640625 111.12109375 C-155.57615234 111.80478027 -155.83589844 112.4884668 -156.10351562 113.19287109 C-164.87500092 137.0325956 -159.62592225 162.44015856 -149.31640625 185.12109375 C-148.96707031 185.92675781 -148.61773437 186.73242188 -148.2578125 187.5625 C-146.54340184 191.29150996 -145.09633503 194.28840101 -141.31640625 196.12109375 C-139.65021039 196.16070613 -137.98249421 196.1650104 -136.31640625 196.12109375 C-136.05988281 195.37085938 -135.80335938 194.620625 -135.5390625 193.84765625 C-128.99666424 176.35720433 -113.05579692 164.37047407 -96.6328125 156.42578125 C-89.33262977 153.55386013 -82.96245519 152.78923329 -75.19140625 152.87109375 C-74.26996826 152.87713623 -73.34853027 152.88317871 -72.39916992 152.8894043 C-62.00526379 153.03906784 -52.36098867 154.35451043 -42.42578125 157.50390625 C-39.49495009 158.36144574 -37.33663861 158.67022691 -34.31640625 158.12109375 C-27.63523439 153.94536134 -23.1697574 146.76285573 -20.94140625 139.24609375 C-17.88433731 123.26017074 -22.83022342 106.67517734 -31.31640625 93.12109375 C-42.53588771 77.88621893 -64.31725865 69.44023108 -82.3515625 66.62890625 C-104.14019624 63.8382438 -127.54926848 69.37071128 -142.328125 86.4453125 Z M-93.31640625 162.12109375 C-94.21488281 162.52199219 -95.11335938 162.92289063 -96.0390625 163.3359375 C-108.42382505 169.48376927 -122.66067254 180.73856616 -127.31640625 194.12109375 C-128.31874811 197.4470413 -128.31874811 197.4470413 -127.31640625 201.12109375 C-124.32272508 204.55185238 -120.88641356 207.31055254 -117.31640625 210.12109375 C-116.68347656 210.65734375 -116.05054688 211.19359375 -115.3984375 211.74609375 C-97.88686658 225.97182907 -70.76461998 236.99568362 -48.31640625 235.12109375 C-35.9911999 233.58720289 -24.5624047 230.36739997 -13.31640625 225.12109375 C-12.43339844 224.72019531 -11.55039063 224.31929688 -10.640625 223.90625 C-4.54359988 220.86286099 0.59782736 216.29262654 3.68359375 210.12109375 C3.94088652 205.57558817 3.83416305 202.16574243 1.68359375 198.12109375 C-6.69317076 192.95381756 -18.61376076 192.27038139 -28.1640625 190.6328125 C-32.85863737 189.73151682 -36.00256411 188.63577481 -39.31640625 185.12109375 C-41.0323289 181.55585517 -41.54641732 178.61502443 -41.69140625 174.68359375 C-42.1097375 169.74330088 -42.68943937 166.74806063 -46.31640625 163.12109375 C-59.9211726 155.65653168 -79.38863765 155.8190254 -93.31640625 162.12109375 Z " fill="rgba(244, 194, 238, 0.1)" transform="translate(211.31640625,42.87890625)"/>
<path d="M0 0 C0 0.99 0 1.98 0 3 C-0.95519531 2.855625 -1.91039062 2.71125 -2.89453125 2.5625 C-27.39092762 -0.95443029 -45.20955921 4.80794982 -65.0625 19.13818359 C-72.6323806 24.80908325 -79.14775119 31.58715151 -85 39 C-86.32 38.67 -87.64 38.34 -89 38 C-81.86391753 19.98988711 -60.92248236 8.64082414 -43.953125 1.1640625 C-30.06321135 -4.68277856 -13.69559399 -9.13039599 0 0 Z " fill="rgba(244, 194, 238, 0.1)" transform="translate(156,186)"/>
<path d="M0 0 C1.02222656 0.30421875 2.04445312 0.6084375 3.09765625 0.921875 C12.13570333 4.08458326 18.99725842 10.19823846 26.13037109 16.38793945 C27.37428571 17.46048688 28.63259494 18.51656785 29.90478516 19.55541992 C37.54935502 25.84480682 44.20594911 35.32525535 45.39453125 45.31640625 C45.65569389 48.54437643 45.85891464 51.76476664 46 55 C43.35868488 52.35868488 42.79331915 49.42271102 41.75 45.9375 C39.72700135 39.54022378 37.22856921 34.27554668 33 29 C32.25492187 28.03320312 31.50984375 27.06640625 30.7421875 26.0703125 C27.94199402 22.73343272 24.70952682 20.37513375 21.125 17.9375 C19.94010417 17.11328125 18.75520833 16.2890625 17.5703125 15.46484375 C16.98121094 15.06160889 16.39210938 14.65837402 15.78515625 14.24291992 C14.58177676 13.40506366 13.3916828 12.54783862 12.21484375 11.6730957 C-2.51298849 0.73898073 -23.66471151 -1.70870666 -41.5 0.875 C-43.66745447 1.24541947 -45.83419855 1.62003483 -48 2 C-50.99719138 2.37566976 -53.99524525 2.6891633 -57 3 C-57 2.34 -57 1.68 -57 1 C-37.97741146 -5.31280593 -19.09803628 -6.16728836 0 0 Z " fill="rgba(244, 194, 238, 0.1)" transform="translate(158,96)"/>
<path d="M0 0 C1.9375 0.8125 1.9375 0.8125 3.9375 3.8125 C4.0625 6.5 4.0625 6.5 3.9375 8.8125 C4.576875 9.01875 5.21625 9.225 5.875 9.4375 C7.9375 10.8125 7.9375 10.8125 8.75 13.875 C8.811875 14.844375 8.87375 15.81375 8.9375 16.8125 C7.9375 17.8125 7.9375 17.8125 5.125 18.125 C1.9375 17.8125 1.9375 17.8125 -0.25 16.25 C-3.07046947 12.45695485 -4.81056066 8.70204504 -5.4375 4 C-5.31375 3.278125 -5.19 2.55625 -5.0625 1.8125 C-2.0625 -0.1875 -2.0625 -0.1875 0 0 Z " fill="rgba(244, 194, 238, 0.1)" transform="translate(201.0625,72.1875)"/>
<path d="M0 0 C0.875 2.5 0.875 2.5 1 6 C-1.73135151 11.35183635 -5.29569337 14.92570668 -11 17 C-11.66 17 -12.32 17 -13 17 C-13.38963311 10.50611487 -12.10714365 6.76108478 -8.1875 1.625 C-5.33734149 -0.4922606 -3.46690927 -0.31517357 0 0 Z " fill="rgba(244, 194, 238, 0.1)" transform="translate(136,127)"/>
<path d="M0 0 C-4.21421303 8.3953734 -9.21841522 15.63811538 -15 23 C-15.66 22.67 -16.32 22.34 -17 22 C-17.54848998 15.8569122 -16.67398815 12.61542058 -13.2890625 7.46875 C-12.65097656 6.74171875 -12.65097656 6.74171875 -12 6 C-11.34 6 -10.68 6 -10 6 C-9.731875 5.38125 -9.46375 4.7625 -9.1875 4.125 C-6.90158028 0.03440681 -4.32852843 -0.23397451 0 0 Z " fill="rgba(244, 194, 238, 0.1)" transform="translate(78,137)"/>
<path d="M0 0 C0.99 0.33 1.98 0.66 3 1 C3.33249053 7.20648988 2.54922986 11.31325646 0 17 C-0.66 17.66 -1.32 18.32 -2 19 C-4.125 18.625 -4.125 18.625 -6 18 C-6.46753711 11.42850615 -6.46809228 7.25657916 -2 2 C-1.34 1.34 -0.68 0.68 0 0 Z " fill="rgba(244, 194, 238, 0.1)" transform="translate(65,173)"/>
<path d="M0 0 C3.35810395 1.38956025 5.18586552 2.82526467 7 6 C7.375 8.625 7.375 8.625 7 11 C4 13 4 13 0.4375 12.8125 C-3 12 -3 12 -5 9 C-4.82531656 5.59367293 -4.22771261 4.25531414 -1.9375 1.6875 C-1.298125 1.130625 -0.65875 0.57375 0 0 Z " fill="rgba(244, 194, 238, 0.1)" transform="translate(263,68)"/>
<path d="M0 0 C2 2 2 2 2.265625 3.875 C2.26046875 4.57625 2.2553125 5.2775 2.25 6 C2.25515625 6.70125 2.2603125 7.4025 2.265625 8.125 C2 10 2 10 0 12 C-3.5625 11.75 -3.5625 11.75 -7 11 C-8.39935013 8.20129973 -8.25265405 6.09501208 -8 3 C-5.8975876 -0.31959853 -3.76753493 -0.4830173 0 0 Z " fill="rgba(244, 194, 238, 0.1)" transform="translate(128,155)"/>
<path d="M0 0 C-0.40316925 6.31631828 -2.71232131 10.64993984 -6 16 C-6.66 16 -7.32 16 -8 16 C-8.33 16.99 -8.66 17.98 -9 19 C-9.66 19 -10.32 19 -11 19 C-11.42105485 12.89470468 -11.10167827 9.85725058 -7 5 C-1.70976253 0 -1.70976253 0 0 0 Z " fill="rgba(244, 194, 238, 0.1)" transform="translate(70,157)"/>
<path d="M0 0 C0.66 0 1.32 0 2 0 C2 6.6 2 13.2 2 20 C0.68 20 -0.64 20 -2 20 C-4 18 -4 18 -4.375 14.5 C-4.27792982 9.21938239 -2.17353521 4.73520172 0 0 Z " fill="rgba(244, 194, 238, 0.1)" transform="translate(106,228)"/>
<path d="M0 0 C3 1 3 1 4.1875 3.125 C5.17234005 6.60981863 5.32793534 9.39271122 5 13 C3.5 15.4375 3.5 15.4375 2 17 C1.01 16.67 0.02 16.34 -1 16 C-2.22485812 13.55028376 -2.16722808 11.85765539 -2.1875 9.125 C-2.20167969 8.26132813 -2.21585938 7.39765625 -2.23046875 6.5078125 C-1.98859252 3.8758712 -1.32983541 2.26019456 0 0 Z " fill="rgba(244, 194, 238, 0.1)" transform="translate(132,247)"/>
<path d="M0 0 C0.99 0.33 1.98 0.66 3 1 C4.55169188 5.35951528 5.20360641 7.88016476 4.375 12.4375 C3 15 3 15 1 16 C0.34 16 -0.32 16 -1 16 C-3 14 -3 14 -3.3125 10.8125 C-2.95717884 6.47758191 -1.89596629 3.87093117 0 0 Z " fill="rgba(244, 194, 238, 0.1)" transform="translate(284,129)"/>
<path d="M0 0 C3.02708389 0.73831314 4.54625043 1.3301792 6.3125 3.9375 C7 6 7 6 7 9 C6.34 9 5.68 9 5 9 C5 9.66 5 10.32 5 11 C2.6875 11.25 2.6875 11.25 0 11 C-2.31228769 8.84718042 -2.92823265 7.50237143 -3.375 4.375 C-3.25125 3.59125 -3.1275 2.8075 -3 2 C-2.01 1.34 -1.02 0.68 0 0 Z " fill="rgba(244, 194, 238, 0.1)" transform="translate(176,84)"/>
<path d="M0 0 C6.57692308 0.57692308 6.57692308 0.57692308 8 2 C8.2982732 4.83359542 8.35602594 6.43785378 6.8125 8.875 C5 10 5 10 2.4375 9.8125 C0 9 0 9 -2 7 C-2.25 4.5 -2.25 4.5 -2 2 C-1.34 1.34 -0.68 0.68 0 0 Z " fill="rgba(244, 194, 238, 0.1)" transform="translate(270,87)"/>
<path d="M0 0 C2.625 0.375 2.625 0.375 4.5 2.5625 C5.76867764 5.73419409 5.63334883 7.16661737 4.625 10.375 C1.75 11 1.75 11 -1.375 11.375 C-3.375 9.375 -3.375 9.375 -3.60546875 7.46484375 C-3.46737256 0.54747988 -3.46737256 0.54747988 0 0 Z " fill="rgba(244, 194, 238, 0.1)" transform="translate(176.375,64.625)"/>
<path d="M0 0 C1.2375 0.1546875 1.2375 0.1546875 2.5 0.3125 C5.06687367 4.1628105 4.33288724 5.89819763 3.5 10.3125 C1.85 10.6425 0.2 10.9725 -1.5 11.3125 C-3.51544839 9.04512056 -4.44914998 7.73964016 -4.8125 4.6875 C-4.36441069 1.28202126 -3.38846164 0.4235577 0 0 Z " fill="rgba(244, 194, 238, 0.1)" transform="translate(189.5,62.6875)"/>
<path d="M0 0 C3.0625 -0.25 3.0625 -0.25 6 0 C6.33 0.33 6.66 0.66 7 1 C6.64476021 7.39431616 6.64476021 7.39431616 3.9375 9.9375 C3.298125 10.288125 2.65875 10.63875 2 11 C0.68 10.34 -0.64 9.68 -2 9 C-2.25 3.375 -2.25 3.375 0 0 Z " fill="rgba(244, 194, 238, 0.1)" transform="translate(155,136)"/>
<path d="M0 0 C2.5 0.25 2.5 0.25 4.5 2.25 C3.92307692 8.82692308 3.92307692 8.82692308 2.5 10.25 C0.0625 10.4375 0.0625 10.4375 -2.5 10.25 C-4.5 8.25 -4.5 8.25 -4.75 5.25 C-4.43608753 1.48305032 -3.83691092 0.38369109 0 0 Z " fill="rgba(244, 194, 238, 0.1)" transform="translate(144.5,136.75)"/>
<path d="M0 0 C5.56818182 0.56818182 5.56818182 0.56818182 7 2 C7.1875 4.9375 7.1875 4.9375 7 8 C5 10 5 10 2.5 10.25 C0 10 0 10 -2 8 C-2.25 5 -2.25 5 -2 2 C-1.34 1.34 -0.68 0.68 0 0 Z " fill="rgba(244, 194, 238, 0.1)" transform="translate(284,76)"/>
<path d="M0 0 C0.66 0 1.32 0 2 0 C3.36011539 2.72023078 3.2062431 4.9661881 3.25 8 C3.27578125 9.0725 3.3015625 10.145 3.328125 11.25 C3.21984375 12.1575 3.1115625 13.065 3 14 C2.01 14.66 1.02 15.32 0 16 C-1.5 14.9375 -1.5 14.9375 -3 13 C-3.5932427 7.75968945 -2.64473443 4.51808798 0 0 Z " fill="rgba(244, 194, 238, 0.1)" transform="translate(320,137)"/>
<path d="M0 0 C0.66 0 1.32 0 2 0 C4.25495121 4.50990242 4.2430836 8.05730019 4 13 C3.67 13.66 3.34 14.32 3 15 C-0.875 14.125 -0.875 14.125 -2 13 C-2.16796875 11.07421875 -2.16796875 11.07421875 -2.1875 8.6875 C-2.20167969 7.90761719 -2.21585937 7.12773437 -2.23046875 6.32421875 C-1.97984413 3.7967332 -1.26373772 2.18281969 0 0 Z " fill="rgba(244, 194, 238, 0.1)" transform="translate(113,239)"/>
<path d="M0 0 C3 1 3 1 4.2109375 2.765625 C5.13471643 5.38147425 5.02641299 7.02039168 4.625 9.75 C4.51414062 10.54921875 4.40328125 11.3484375 4.2890625 12.171875 C4.19367188 12.77515625 4.09828125 13.3784375 4 14 C3.01 14.33 2.02 14.66 1 15 C-1.09740836 11.85388747 -1.25328219 11.08811922 -1.1875 7.5 C-1.17783203 6.33984375 -1.17783203 6.33984375 -1.16796875 5.15625 C-1 3 -1 3 0 0 Z " fill="rgba(244, 194, 238, 0.1)" transform="translate(122,243)"/>
<path d="M0 0 C5.56818182 0.56818182 5.56818182 0.56818182 7 2 C7.1875 4.4375 7.1875 4.4375 7 7 C6.34 7.66 5.68 8.32 5 9 C-0.56818182 8.43181818 -0.56818182 8.43181818 -2 7 C-2.1875 4.5625 -2.1875 4.5625 -2 2 C-1.34 1.34 -0.68 0.68 0 0 Z " fill="rgba(244, 194, 238, 0.1)" transform="translate(141,223)"/>
<path d="M0 0 C4.70588235 0.70588235 4.70588235 0.70588235 6 2 C5.71269945 4.33944736 5.38063221 6.6739143 5 9 C3.35 9.33 1.7 9.66 0 10 C-2 7 -2 7 -1.6875 3.875 C-1 1 -1 1 0 0 Z " fill="rgba(244, 194, 238, 0.1)" transform="translate(332,155)"/>
<path d="M0 0 C0.99 0.33 1.98 0.66 3 1 C2.38461538 8.50769231 2.38461538 8.50769231 0.4375 11 C-0.2740625 11.495 -0.2740625 11.495 -1 12 C-2.5625 10.875 -2.5625 10.875 -4 9 C-3.86138651 5.67327622 -3.58989219 3.70787063 -1.4375 1.125 C-0.963125 0.75375 -0.48875 0.3825 0 0 Z " fill="rgba(244, 194, 238, 0.1)" transform="translate(327,147)"/>
<path d="M0 0 C1.32 0.66 2.64 1.32 4 2 C4 4.64 4 7.28 4 10 C0.25 11.125 0.25 11.125 -2 10 C-2.25 3.375 -2.25 3.375 0 0 Z " fill="rgba(244, 194, 238, 0.1)" transform="translate(275,136)"/>
<path d="M0 0 C1.32 1.32 2.64 2.64 4 4 C3.34 5.32 2.68 6.64 2 8 C0.35 7.67 -1.3 7.34 -3 7 C-3.33 5.68 -3.66 4.36 -4 3 C-2.68 2.01 -1.36 1.02 0 0 Z " fill="rgba(244, 194, 238, 0.1)" transform="translate(220,82)"/>
<path d="M0 0 C2.625 0.375 2.625 0.375 5 1 C5 2.32 5 3.64 5 5 C3.35 5.33 1.7 5.66 0 6 C-0.66 4.68 -1.32 3.36 -2 2 C-1.34 1.34 -0.68 0.68 0 0 Z " fill="rgba(244, 194, 238, 0.1)" transform="translate(136,216)"/>
<path d="M0 0 C1.32 0.33 2.64 0.66 4 1 C4.33 2.32 4.66 3.64 5 5 C3.02 5.99 3.02 5.99 1 7 C0.01 6.34 -0.98 5.68 -2 5 C-1.34 3.35 -0.68 1.7 0 0 Z " fill="rgba(244, 194, 238, 0.1)" transform="translate(328,101)"/>
<path d="M0 0 C1.32 0.66 2.64 1.32 4 2 C3.67 3.65 3.34 5.3 3 7 C1.0625 6.1875 1.0625 6.1875 -1 5 C-1.33 4.01 -1.66 3.02 -2 2 C-1.34 1.34 -0.68 0.68 0 0 Z " fill="rgba(244, 194, 238, 0.1)" transform="translate(141,69)"/>
<path d="M0 0 C-0.33 2.31 -0.66 4.62 -1 7 C-1.99 7 -2.98 7 -4 7 C-4 5.02 -4 3.04 -4 1 C-2 0 -2 0 0 0 Z " fill="rgba(244, 194, 238, 0.1)" transform="translate(270,142)"/>
<path d="M0 0 C-0.33 1.32 -0.66 2.64 -1 4 C-2.9375 3.6875 -2.9375 3.6875 -5 3 C-5.33 2.01 -5.66 1.02 -6 0 C-3.50907189 -1.24546405 -2.58919267 -0.7767578 0 0 Z " fill="rgba(244, 194, 238, 0.1)" transform="translate(275,69)"/>
<path d="M0 0 C2.4375 0.375 2.4375 0.375 5 1 C5.33 1.66 5.66 2.32 6 3 C3.69 3 1.38 3 -1 3 C-0.67 2.01 -0.34 1.02 0 0 Z " fill="rgba(244, 194, 238, 0.1)" transform="translate(282,95)"/>
<path d="" fill="rgba(244, 194, 238, 0.1)" transform="translate(0,0)"/>
</svg>
