<?xml version="1.0" encoding="UTF-8"?>
<svg version="1.1" xmlns="http://www.w3.org/2000/svg" width="413" height="350">
<path d="M0 0 C3.82635915 2.63774546 5.83874052 4.92684492 7.8125 9.125 C8.23144531 9.99382813 8.65039062 10.86265625 9.08203125 11.7578125 C10 14 10 14 10 16 C10.55349121 16.09498779 11.10698242 16.18997559 11.67724609 16.2878418 C27.16636522 19.0036759 40.49241851 21.94014406 50.6015625 35.08203125 C55.04851496 41.8824878 56.11863134 47.54671852 55.97070312 55.60498047 C55.63713401 65.4163036 55.63713401 65.4163036 59.19140625 74.22265625 C62.02276315 76.39244436 64.93963373 78.17255834 68 80 C70.58984375 82.4140625 70.58984375 82.4140625 72.9375 85 C73.62714844 85.7425 74.31679688 86.485 75.02734375 87.25 C80.3295009 94.64152205 81.67051311 101.2449635 81.5 110.25 C81.48936523 111.26199463 81.47873047 112.27398926 81.46777344 113.31665039 C81.22796288 122.78689057 79.5156396 130.71119112 74.75 139 C72.47112755 143.2849841 72.89376313 147.12024471 73.03808594 151.87939453 C73.16133356 173.47280702 67.03225635 195.7751997 63.01544189 216.90649414 C62.3251044 220.54742154 61.64159006 224.18961547 60.95822906 227.83185768 C60.29127609 231.38420927 59.62140324 234.93600509 58.95054626 238.48762131 C58.63425826 240.16258291 58.31853547 241.83765137 58.00343323 243.51283646 C52.52980115 272.56423862 52.52980115 272.56423862 48 278 C47.62617188 278.51304687 47.25234375 279.02609375 46.8671875 279.5546875 C37.03402134 292.33191539 21.61045615 300.22748323 6.5 304.8125 C5.86094727 305.00755127 5.22189453 305.20260254 4.56347656 305.40356445 C-6.86613913 308.61513346 -18.5756173 309.35259054 -30.38623047 309.31567383 C-32.49889285 309.31250166 -34.61016397 309.33613865 -36.72265625 309.36132812 C-45.80155287 309.40537255 -54.19515341 308.30939557 -63 306 C-64.71968994 305.55466919 -64.71968994 305.55466919 -66.47412109 305.1003418 C-86.65994333 299.70870275 -104.61660932 293.72251706 -122 282 C-122.88429687 281.41734375 -123.76859375 280.8346875 -124.6796875 280.234375 C-131.2788187 275.64157307 -133.24917974 270.04156513 -134.9375 262.27734375 C-135.18538521 261.17755188 -135.18538521 261.17755188 -135.4382782 260.05554199 C-135.96857242 257.68489213 -136.48549476 255.31162321 -137 252.9375 C-137.17874664 252.12233917 -137.35749329 251.30717834 -137.54165649 250.46731567 C-140.04498771 239.02417844 -142.1988534 227.63848352 -143.61962891 216.00683594 C-144.9421233 205.55250927 -146.50110422 195.12610188 -148.03378296 184.7008667 C-148.66573322 180.3809957 -149.25899876 176.05839931 -149.81820679 171.72854614 C-151.65945166 157.64754879 -153.7594514 145.72005505 -161.6953125 133.76171875 C-167.62296411 124.76136119 -169.44067935 112.97257302 -167.5390625 102.44921875 C-165.25975649 93.82807897 -160.86368446 87.63343644 -154.375 81.625 C-149.01138514 76.40489323 -147.39349157 71.19634071 -145.48828125 64.09179688 C-139.61880419 42.29980225 -129.39633502 23.52343534 -109.25 11.8125 C-99.40770572 6.28298583 -89.41383689 2.0033127 -78.02368164 1.9128418 C-70.22486588 1.77937415 -65.44565402 0.92014275 -59.27734375 -4.21484375 C-41.74461822 -17.95833529 -17.39329384 -9.55583373 0 0 Z M-59.08984375 8.73046875 C-62.65346163 11.09892644 -65.92522222 11.14403138 -70.10498047 11.28979492 C-88.06958911 11.92890281 -102.145246 16.98820712 -115 30 C-115.62519531 30.60328125 -116.25039062 31.2065625 -116.89453125 31.828125 C-128.32886309 43.7012461 -133.04162143 59.82937029 -135.3125 75.75390625 C-137.12218953 81.6662442 -141.35505068 85.39735343 -145.9375 89.25 C-152.18110004 94.80521764 -156.33735751 99.78397012 -157.42578125 108.3515625 C-157.84094427 119.24069552 -155.26982161 128.524763 -148.11083984 136.86865234 C-141.33303621 143.71230557 -131.8352709 146.92565663 -122.9375 150.0625 C-121.72610352 150.49296631 -120.51470703 150.92343262 -119.26660156 151.36694336 C-99.34446793 158.20756675 -79.24042391 161.23419436 -58.25 161.25 C-57.4443158 161.25067474 -56.63863159 161.25134949 -55.80853271 161.25204468 C-30.86535615 161.21926582 -5.7318027 159.96259026 18.49316406 153.64404297 C21.00490416 152.99874005 23.52487015 152.41752779 26.0546875 151.84765625 C39.09062731 148.81616224 55.46240106 144.06058333 64 133 C69.60415867 122.63478617 70.79093287 109.6754266 68.125 98.25 C63.34877977 90.94519259 57.5325858 84.48593324 50 80 C49.34 80 48.68 80 48 80 C46.40622471 76.46568327 45.74559324 73.66575547 45.69140625 69.796875 C45.66626953 68.81589844 45.64113281 67.83492188 45.61523438 66.82421875 C45.58034717 64.79042372 45.54904054 62.75656382 45.52148438 60.72265625 C45.26450426 51.13291066 43.65163805 43.8749943 36.9609375 36.7890625 C30.19285974 30.61420271 23.05505952 28.09802175 14 27.125 C4.6023622 25.78248031 4.6023622 25.78248031 1 22 C0.1465357 20.07128297 -0.68415054 18.13242683 -1.5 16.1875 C-5.18196533 8.24220639 -11.26699275 5.93528133 -19 3 C-19.88300781 2.64164063 -20.76601562 2.28328125 -21.67578125 1.9140625 C-35.57653477 -3.04561715 -47.53809341 0.44926841 -59.08984375 8.73046875 Z M41 160 C37.77009836 165.53546988 38.06714728 172.11898784 38.10614014 178.35797119 C38.13203865 182.58680427 37.93522274 186.79720112 37.75125122 191.02130127 C37.65596802 193.24476732 37.57204321 195.46874671 37.49899292 197.6930542 C37.04116709 210.45974332 35.22864867 222.99891385 33.375 235.625 C33.06819628 237.77256574 32.76234552 239.92026788 32.45751953 242.06811523 C31.445314 249.16604819 30.41471703 256.26112179 29.34472656 263.35058594 C29.16135742 264.58325195 28.97798828 265.81591797 28.7890625 267.0859375 C28.55630615 268.61420166 28.55630615 268.61420166 28.31884766 270.17333984 C27.98435677 273.13868092 27.94409842 276.01839793 28 279 C46.27893976 264.72295829 46.45271865 240.89416315 50.4876709 219.37695312 C51.50387799 213.96059816 52.5255846 208.54527908 53.54880524 203.13024521 C53.80213924 201.78871373 54.05510626 200.4471129 54.30770111 199.10544205 C55.73061358 191.55037638 57.18849781 184.00413715 58.71972656 176.47021484 C58.85997065 175.77848144 59.00021473 175.08674803 59.14470863 174.374053 C59.81563563 171.06869338 60.49247964 167.76481985 61.17819214 164.46247864 C61.4173233 163.29174301 61.65645447 162.12100739 61.90283203 160.91479492 C62.11521515 159.88980392 62.32759827 158.86481293 62.54641724 157.8087616 C62.97628184 155.14687211 63.08659264 152.69013309 63 150 C55.88042545 150 46.20101114 155.50662629 41 160 Z M-144 153 C-144.13360986 157.94040258 -143.6905196 162.34646694 -142.6796875 167.1796875 C-142.54072052 167.85668701 -142.40175354 168.53368652 -142.25857544 169.23120117 C-141.95924642 170.68741649 -141.65698521 172.14303164 -141.35205078 173.5980835 C-140.53018393 177.52077324 -139.72938272 181.44773913 -138.9296875 185.375 C-138.76563416 186.17912323 -138.60158081 186.98324646 -138.43255615 187.81173706 C-136.95051901 195.13103014 -135.64398583 202.47640032 -134.3581543 209.83218384 C-131.7699626 224.59453591 -128.66990647 239.17374719 -124.86401367 253.67651367 C-124.25151017 256.0325493 -123.67733444 258.39870043 -123.13012695 260.77075195 C-121.54027719 268.30918225 -121.54027719 268.30918225 -116.87109375 274.08203125 C-115.73800781 274.65308594 -114.60492188 275.22414063 -113.4375 275.8125 C-111.73400391 276.71935547 -111.73400391 276.71935547 -109.99609375 277.64453125 C-107.03975843 279.04392762 -107.03975843 279.04392762 -104 280 C-106.40606419 258.8420239 -108.82276452 237.68528613 -111.251194 216.52986526 C-111.78176032 211.90651107 -112.31030401 207.28293085 -112.83740234 202.65917969 C-113.40907558 197.64746411 -113.98664154 192.63647417 -114.57046509 187.62615967 C-114.77208042 185.88752798 -114.97147363 184.14863705 -115.16854858 182.40948486 C-115.43709665 180.04308035 -115.71353647 177.6777329 -115.9921875 175.3125 C-116.14026855 174.02988281 -116.28834961 172.74726563 -116.44091797 171.42578125 C-116.99045126 168.05851 -117.65202801 165.13561844 -119 162 C-121.5940005 160.42860548 -123.77815498 159.32918636 -126.5625 158.25 C-127.28179687 157.95343506 -128.00109375 157.65687012 -128.7421875 157.35131836 C-133.75452305 155.33791736 -138.65546995 153.85894233 -144 153 Z M23.25 164 C20.125 165 20.125 165 17 166 C15.63449062 182.35635098 14.46460962 198.7135064 13.4921875 215.09765625 C13.36073886 217.28154266 13.22907126 219.4654159 13.09719849 221.64927673 C12.75640156 227.30247393 12.4185093 232.95584082 12.08129883 238.60925293 C11.73439807 244.41604328 11.38464405 250.22266176 11.03515625 256.02929688 C10.35403582 267.35270156 9.67599508 278.67628826 9 290 C10.47639853 289.40899126 11.94653552 288.8023222 13.4138031 288.18899536 C14.2331153 287.85282763 15.0524275 287.51665989 15.89656734 287.17030525 C18.31757915 286.09569327 18.31757915 286.09569327 19.37915039 282.97607422 C19.58012329 281.09686279 19.58012329 281.09686279 19.78515625 279.1796875 C19.87732925 278.45482147 19.96950226 277.72995544 20.06446838 276.98312378 C20.2785807 275.29756511 20.47596326 273.60983307 20.66046143 271.92077637 C21.18424555 267.41508419 21.87849041 262.93637692 22.54707336 258.45025635 C23.44394197 252.3881026 24.29153733 246.3191747 25.14024734 240.25012207 C25.43984629 238.10822588 25.74036393 235.96645997 26.04098511 233.82470703 C28.36671586 217.23564496 30.66221205 200.64419393 32.5625 184 C32.64249237 183.30892151 32.72248474 182.61784302 32.80490112 181.90582275 C33.56878244 175.24078852 34.19293231 168.71068901 34 162 C29.89869195 162 27.13235289 162.75764707 23.25 164 Z M-111 165 C-110.37793455 173.08685079 -109.70606365 181.04470818 -108.64892578 189.06689453 C-108.51704865 190.08809891 -108.38517151 191.10930328 -108.2492981 192.16145325 C-107.81864395 195.48577607 -107.38256791 198.80935188 -106.9453125 202.1328125 C-106.79551815 203.27556515 -106.6457238 204.41831779 -106.49139023 205.59569931 C-105.70097036 211.62326199 -104.9062201 217.65023526 -104.10791016 223.67675781 C-103.28420195 229.9018196 -102.47580003 236.12877215 -101.67070198 242.35626411 C-101.04777992 247.15280783 -100.4135761 251.94781046 -99.7762413 256.74245834 C-99.47296131 259.03926776 -99.17398323 261.33664943 -98.87936783 263.63458633 C-98.46815185 266.83379133 -98.04103311 270.03048284 -97.60986328 273.22705078 C-97.49130981 274.17766891 -97.37275635 275.12828705 -97.25061035 276.10771179 C-97.13013336 276.97653488 -97.00965637 277.84535797 -96.88552856 278.74050903 C-96.78635195 279.49516512 -96.68717533 280.24982121 -96.58499336 281.02734566 C-95.86772546 283.44604257 -94.96073539 284.43728743 -93 286 C-89.92083745 287.14938987 -89.92083745 287.14938987 -86.36328125 288.04296875 C-85.72384079 288.21629227 -85.08440033 288.38961578 -84.42558289 288.56819153 C-82.39031374 289.11752191 -80.3516197 289.65266075 -78.3125 290.1875 C-76.92878664 290.55831382 -75.54531965 290.93004833 -74.16210938 291.30273438 C-70.77799163 292.2142334 -67.38927374 293.10787371 -64 294 C-64.59491391 279.4236139 -65.56942667 264.91342553 -66.8125 250.37890625 C-66.98830023 248.29339273 -67.1638318 246.20785654 -67.33911133 244.12229919 C-67.70316849 239.80031998 -68.06979679 235.47856971 -68.43847656 231.15698242 C-68.91017452 225.62639061 -69.3762031 220.09533846 -69.84046936 214.56411839 C-70.20060877 210.27886525 -70.56320786 205.99382312 -70.92660522 201.70884514 C-71.09948127 199.66799299 -71.27171019 197.62708591 -71.44326782 195.58612251 C-71.68240619 192.7467367 -71.92474145 189.9076416 -72.16796875 187.06860352 C-72.27242813 185.81796867 -72.27242813 185.81796867 -72.3789978 184.54206848 C-72.44624054 183.76482422 -72.51348328 182.98757996 -72.58276367 182.18678284 C-72.63953781 181.51902612 -72.69631195 180.8512694 -72.75480652 180.16327763 C-73.06480719 177.4282232 -73.54748083 174.71511502 -74 172 C-86.21 169.69 -98.42 167.38 -111 165 Z M-6.5625 168.9375 C-7.96145508 169.06801758 -7.96145508 169.06801758 -9.38867188 169.20117188 C-13.68501743 169.61457647 -17.75221255 170.15044251 -22 171 C-22 212.58 -22 254.16 -22 297 C-13.52787522 296.31182245 -13.52787522 296.31182245 -5.3125 294.9375 C-4.06919922 294.67259766 -4.06919922 294.67259766 -2.80078125 294.40234375 C-2.20652344 294.26957031 -1.61226562 294.13679688 -1 294 C0.43583908 278.01474842 1.87015955 262.02936142 3.30266571 246.04381084 C3.96781845 238.62167145 4.63347054 231.19957747 5.30029297 223.77758789 C5.88140379 217.30958732 6.46158301 210.84150398 7.04063749 204.37331897 C7.34735453 200.94758022 7.65454212 197.52188512 7.96284485 194.09628868 C8.30675549 190.2748522 8.6485865 186.45323128 8.99023438 182.6315918 C9.0930925 181.49223679 9.19595062 180.35288177 9.30192566 179.17900085 C9.39448135 178.13993591 9.48703705 177.10087097 9.58239746 176.03031921 C9.66351524 175.1260403 9.74463303 174.22176138 9.82820892 173.29008007 C9.96018684 171.53073373 10 169.76428957 10 168 C4.43088631 167.86053972 -1.02799742 168.39595603 -6.5625 168.9375 Z M-67 172 C-66.566875 175.34125 -66.13375 178.6825 -65.6875 182.125 C-64.47175398 191.91709113 -63.61245606 201.70085931 -62.91244507 211.54034424 C-61.62999318 229.47828762 -59.70632423 247.3275884 -57.61628723 265.18633652 C-57.3750801 267.24931491 -57.13536715 269.31246286 -56.89587402 271.37564087 C-56.44456464 275.25637332 -55.9850012 279.13609787 -55.5234375 283.015625 C-55.3849942 284.1971666 -55.2465509 285.37870819 -55.10391235 286.59605408 C-54.97342499 287.67585037 -54.84293762 288.75564667 -54.70849609 289.86816406 C-54.59541107 290.81500061 -54.48232605 291.76183716 -54.36581421 292.73736572 C-54.11135593 295.02622724 -54.11135593 295.02622724 -53 297 C-46.07 297.33 -39.14 297.66 -32 298 C-31.96241577 294.20556396 -31.96241577 294.20556396 -31.92407227 290.33447266 C-31.83963534 281.86487595 -31.75109113 273.3953255 -31.66066074 264.92579079 C-31.60609081 259.80357174 -31.55279623 254.6813468 -31.50268555 249.55908203 C-30.97317299 195.6780759 -30.97317299 195.6780759 -29 172 C-41.54 172 -54.08 172 -67 172 Z " fill="rgba(244, 194, 238, 0.1)" transform="translate(246,27)"/>
<path d="M0 0 C0.66 0 1.32 0 2 0 C4.50188721 4.70943475 3.90237344 7.91389518 3 13 C2.67 13.99 2.34 14.98 2 16 C3.32 16.33 4.64 16.66 6 17 C5.39891424 22.65020618 3.92471317 27.66164461 2 33 C3.98 32.505 3.98 32.505 6 32 C5.83026138 38.66609845 4.47714629 43.88126889 0 49 C-0.66 49 -1.32 49 -2 49 C-3.36884358 44.48281619 -2.47075246 41.41225737 -1 37 C-1.66 37 -2.32 37 -3 37 C-3.70338498 32.60384387 -4 28.4439671 -4 24 C-4.33 23.67 -4.66 23.34 -5 23 C-4.59255061 14.98682857 -2.33341303 7.62971796 0 0 Z " fill="rgba(244, 194, 238, 0.1)" transform="translate(118,197)"/>
<path d="M0 0 C3.32274404 2.45594125 4.77618008 3.9256644 5.625 8 C4.65438989 12.65892853 1.83858689 14.65170295 -1.875 17.375 C-5.24450538 18.36603099 -7.63592073 17.90109266 -11 17 C-13.96797606 14.40302094 -14.91491311 12.99977091 -15.25 9.0625 C-12.80436797 3.07070153 -6.62048359 -1.61834043 0 0 Z " fill="rgba(244, 194, 238, 0.1)" transform="translate(192,52)"/>
<path d="M0 0 C3.65520099 2.34484592 5.60066741 3.8724727 7.0625 8 C6.98751542 11.5992599 6.19474147 13.17818954 4 16 C0.24952518 18.50031654 -1.55856266 18.53603554 -6 18 C-8.9375 16.0625 -8.9375 16.0625 -11 13 C-11.56746051 9.91409571 -11.68960531 7.06874362 -11 4 C-7.80487236 0.11259471 -4.97197376 -0.57368928 0 0 Z " fill="rgba(244, 194, 238, 0.1)" transform="translate(172,86)"/>
<path d="M0 0 C3.41639845 1.9739191 4.72268412 3.18538459 6 6.9375 C6 10.60292141 5.23178648 12.13056023 3 15 C-0.80949473 17.53966316 -3.53507905 17.5872443 -8 17 C-10.74924188 15.40366601 -10.94539203 14.19322822 -11.8125 11.125 C-12.0192947 7.67842161 -11.69570531 5.98767126 -10 3 C-6.89325138 -0.21770393 -4.38249003 -0.62607 0 0 Z " fill="rgba(244, 194, 238, 0.1)" transform="translate(224,65)"/>
<path d="M0 0 C2.562964 2.23225897 2.93752331 3.58051369 3.4375 6.9375 C2.89919863 10.70560958 1.62436976 12.29844289 -1 15 C-4.04983996 16.52491998 -6.6423369 16.23562548 -10 16 C-11.9375 15 -11.9375 15 -13 13 C-13.51242302 7.70496216 -13.49688826 4.27397454 -10 0 C-6.20519658 -1.26493447 -3.87641726 -0.89988258 0 0 Z " fill="rgba(244, 194, 238, 0.1)" transform="translate(208,92)"/>
<path d="M0 0 C3 0.875 3 0.875 4.9375 2.5 C6.53710048 6.07557755 6.1104484 8.15173184 5 11.875 C2.375 14.875 2.375 14.875 -1 16.875 C-4.59627786 16.875 -6.86538081 16.57041176 -9.9375 14.6875 C-11.58941578 11.86952602 -11.5129523 10.08095185 -11 6.875 C-7.90145694 3.19024609 -5.03875362 -0.20994807 0 0 Z " fill="rgba(244, 194, 238, 0.1)" transform="translate(210,139.125)"/>
<path d="M0 0 C2.03125 0.51953125 2.03125 0.51953125 4.15625 2.64453125 C5.22400472 6.15286818 5.14552531 8.02813528 4.03125 11.51953125 C1.91212579 14.42351628 0.52490377 15.36198218 -2.90625 16.45703125 C-6.69069838 16.53426489 -8.17124668 16.07724857 -10.96875 13.51953125 C-12.09375 10.20703125 -12.09375 10.20703125 -11.96875 6.51953125 C-8.95079001 0.9866046 -6.30363655 -0.45176062 0 0 Z " fill="rgba(244, 194, 238, 0.1)" transform="translate(233.96875,116.48046875)"/>
<path d="M0 0 C2.32039251 1.60027069 2.89969741 2.72775011 3.875 5.375 C4.03917116 8.82259426 3.02451082 10.2524496 1 13 C0.3503125 13.8971875 0.3503125 13.8971875 -0.3125 14.8125 C-2.92924814 16.65391536 -4.88760552 16.38110953 -8 16 C-10.375 15 -10.375 15 -12 13 C-12.61712546 8.21727772 -12.72784513 6.14029071 -10.125 2.0625 C-6.55479145 -1.40270241 -4.76191819 -1.16618405 0 0 Z " fill="rgba(244, 194, 238, 0.1)" transform="translate(223,39)"/>
<path d="M0 0 C2.375 1.625 2.375 1.625 4 4 C4.55802097 7.90614682 4.58392818 10.05111671 2.5 13.4375 C-1.01694681 15.63559176 -3.95866467 15.81157964 -8 15 C-10.5 13.375 -10.5 13.375 -12 11 C-12.66974422 7.06525272 -12.35110528 5.52665792 -10.125 2.1875 C-6.61555362 -1.42516539 -4.80600851 -1.24956221 0 0 Z " fill="rgba(244, 194, 238, 0.1)" transform="translate(149,69)"/>
<path d="M0 0 C2 3 2 3 1.875 6.5 C1 10 1 10 -0.6875 11.9375 C-3.82441193 13.37878386 -5.56678606 13.53854336 -9 13 C-11.51484125 11.54270769 -13.76393851 9.85235863 -16 8 C-15.70540991 4.46491897 -15.25118587 3.23796556 -12.625 0.75 C-7.80063733 -2.46624178 -5.3402917 -1.94192425 0 0 Z " fill="rgba(244, 194, 238, 0.1)" transform="translate(257,88)"/>
<path d="M0 0 C3.64443151 0.69786986 4.84639337 1.50626723 6.9375 4.5625 C7.5 7.5 7.5 7.5 6.9375 10.5625 C4.44665752 13.93246335 3.05161135 15.38060427 -1.125 16.0625 C-4.44197467 15.49790857 -5.89141626 15.15109984 -8.0625 12.5625 C-8.625 9.1875 -8.625 9.1875 -8.0625 5.5625 C-5.58756641 2.14126827 -4.17986219 0.76772979 0 0 Z " fill="rgba(244, 194, 238, 0.1)" transform="translate(162.0625,119.4375)"/>
<path d="M0 0 C7.03722262 6.1747218 6.93905116 18.33766479 8 27 C5.11328125 27.11328125 5.11328125 27.11328125 2 27 C-2.44286674 22.55713326 -2.18255359 17.42580492 -2.1875 11.5 C-2.19974609 10.72785156 -2.21199219 9.95570313 -2.22460938 9.16015625 C-2.23476991 5.2517352 -2.21572048 3.32358072 0 0 Z " fill="rgba(244, 194, 238, 0.1)" transform="translate(123,139)"/>
<path d="M0 0 C2 2 2 2 2.4375 4.375 C2 7 2 7 -0.0625 9.25 C-3.54117305 11.32240097 -5.9567594 11.92648653 -10 12 C-12.4375 10.9375 -12.4375 10.9375 -14 9 C-14.25 5.8125 -14.25 5.8125 -14 3 C-5.70905764 -1.90301921 -5.70905764 -1.90301921 0 0 Z " fill="rgba(244, 194, 238, 0.1)" transform="translate(284,120)"/>
<path d="M0 0 C2.5625 1.625 2.5625 1.625 4 4 C4 7.47744465 3.61862598 9.26240749 1.375 11.9375 C-2.0824978 13.48427533 -4.38451169 12.92030612 -8 12 C-9.9375 10.8125 -9.9375 10.8125 -11 9 C-11.38601984 5.91184125 -11.47901666 3.89815624 -10 1.125 C-6.77832708 -0.68719102 -3.54535963 -0.63360845 0 0 Z " fill="rgba(244, 194, 238, 0.1)" transform="translate(146,95)"/>
<path d="M0 0 C0.99 0 1.98 0 3 0 C3.04898438 1.22976562 3.09796875 2.45953125 3.1484375 3.7265625 C3.22351029 5.35939566 3.29905615 6.99220712 3.375 8.625 C3.4059375 9.43324219 3.436875 10.24148437 3.46875 11.07421875 C3.6952946 15.71838314 4.2592668 19.62693856 6 24 C3.52221994 24.88492145 2.33943414 25.11637742 -0.1875 24.25 C-2 23 -2 23 -3 20 C-3.68471947 12.82361329 -2.40928737 6.74026823 0 0 Z " fill="rgba(244, 194, 238, 0.1)" transform="translate(111,136)"/>
<path d="M0 0 C1.32 0.66 2.64 1.32 4 2 C3.24455376 10.91426564 3.24455376 10.91426564 0 15 C-2.1875 16.3125 -2.1875 16.3125 -4 17 C-5.61816677 13.76366645 -5.59021292 10.49732552 -5 7 C-3.57433609 4.3430809 -1.94698408 2.3363809 0 0 Z " fill="rgba(244, 194, 238, 0.1)" transform="translate(154,234)"/>
<path d="M0 0 C0.66 0 1.32 0 2 0 C1.96519531 1.53720703 1.96519531 1.53720703 1.9296875 3.10546875 C1.91091964 4.46613851 1.89272053 5.8268162 1.875 7.1875 C1.85824219 7.86103516 1.84148437 8.53457031 1.82421875 9.22851562 C1.78461326 13.28807807 2.19979998 16.34998815 4 20 C2.35 20.33 0.7 20.66 -1 21 C-4.33370201 17.15342075 -4.49572109 14.49921986 -4.37109375 9.55078125 C-3.8037592 5.65110271 -2.23546463 3.2134804 0 0 Z " fill="rgba(244, 194, 238, 0.1)" transform="translate(103,132)"/>
<path d="M0 0 C0.66 0 1.32 0 2 0 C1.72740991 6.77386385 0.80946641 11.34724339 -3 17 C-3.66 17 -4.32 17 -5 17 C-6.37793266 11.48826935 -5.81244899 8.67341709 -3.10546875 3.69921875 C-2 2 -2 2 0 0 Z " fill="rgba(244, 194, 238, 0.1)" transform="translate(150,225)"/>
<path d="M0 0 C-1.52450179 5.80054339 -2.65326391 9.67635324 -8 13 C-8.75 9.8125 -8.75 9.8125 -9 6 C-6.4619423 1.97411537 -4.8521491 0 0 0 Z " fill="rgba(244, 194, 238, 0.1)" transform="translate(200,235)"/>
<path d="M0 0 C4.875 0.875 4.875 0.875 6 2 C5.71269945 4.33944736 5.38063221 6.6739143 5 9 C1.25 10.125 1.25 10.125 -1 9 C-1.75 6.125 -1.75 6.125 -2 3 C-1.34 2.01 -0.68 1.02 0 0 Z " fill="rgba(244, 194, 238, 0.1)" transform="translate(216,162)"/>
<path d="M0 0 C0.66 0 1.32 0 2 0 C4.03993514 4.92984325 5.40652968 8.57960425 5 14 C0.125 12.25 0.125 12.25 -1 10 C-1.09472912 8.48154798 -1.1298841 6.95889616 -1.125 5.4375 C-1.12886719 4.22900391 -1.12886719 4.22900391 -1.1328125 2.99609375 C-1 1 -1 1 0 0 Z " fill="rgba(244, 194, 238, 0.1)" transform="translate(138,154)"/>
<path d="M0 0 C0.66 0 1.32 0 2 0 C3.42662219 2.85324437 3.31033868 4.83454549 3 8 C1.1875 10.875 1.1875 10.875 -1 13 C-1.99 13 -2.98 13 -4 13 C-3.50269348 8.02693484 -2.44697666 4.36200187 0 0 Z " fill="rgba(244, 194, 238, 0.1)" transform="translate(122,243)"/>
<path d="M0 0 C0.99 0.33 1.98 0.66 3 1 C3.94921875 3.06640625 3.94921875 3.06640625 4.6875 5.5625 C4.93886719 6.38878906 5.19023437 7.21507812 5.44921875 8.06640625 C5.63097656 8.70449219 5.81273437 9.34257812 6 10 C4.02 10 2.04 10 0 10 C-1.36952673 7.26094655 -1.12621361 5.02912668 -1 2 C-0.67 1.34 -0.34 0.68 0 0 Z " fill="rgba(244, 194, 238, 0.1)" transform="translate(204,163)"/>
<path d="M0 0 C0.66 0 1.32 0 2 0 C4.09440189 3.40340307 4.25797575 6.04437178 4 10 C3.67 10.66 3.34 11.32 3 12 C2.01 11.67 1.02 11.34 0 11 C-1.28571429 3.57142857 -1.28571429 3.57142857 0 0 Z " fill="rgba(244, 194, 238, 0.1)" transform="translate(149,155)"/>
</svg>
